<svg xmlns="http://www.w3.org/2000/svg" viewBox="0 0 1200 620" role="img" aria-labelledby="t d"><title id="t">VoidOne player HUD</title><desc id="d">A player control HUD connecting library, hardware, saves and diagnostics.</desc><defs><pattern id="g" width="40" height="40" patternUnits="userSpaceOnUse"><path d="M40 0H0V40" fill="none" stroke="#39e6ff" stroke-opacity=".12"/></pattern><filter id="glow"><feGaussianBlur stdDeviation="5" result="b"/><feMerge><feMergeNode in="b"/><feMergeNode in="SourceGraphic"/></feMerge></filter></defs><rect width="1200" height="620" rx="18" fill="#070b10"/><rect x="22" y="22" width="1156" height="576" rx="12" fill="url(#g)" stroke="#39e6ff" stroke-opacity=".35"/><path d="M90 105H430M770 105h340M90 515h330M790 515h320" stroke="#39e6ff" stroke-opacity=".4"/><circle cx="600" cy="310" r="128" fill="none" stroke="#39e6ff" stroke-opacity=".25"/><circle cx="600" cy="310" r="86" fill="none" stroke="#39e6ff" stroke-opacity=".65"/><circle cx="600" cy="310" r="30" fill="#39e6ff" fill-opacity=".1" stroke="#39e6ff"/><path d="M600 224v-70M600 396v70M514 310H444M686 310h70" stroke="#39e6ff"/><g fill="#d9fbff" font-family="monospace"><text x="90" y="86" font-size="18">PLAYER / CONTROL HUD</text><text x="90" y="140" font-size="15">LIBRARY</text><text x="90" y="165" font-size="24">GAMES</text><text x="90" y="194" font-size="12" opacity=".65">LAUNCH · ORGANIZE · DISCOVER</text><text x="900" y="140" font-size="15">HARDWARE</text><text x="900" y="165" font-size="24">SYSTEM</text><text x="900" y="194" font-size="12" opacity=".65">CPU · GPU · RAM · RUNTIME</text><text x="90" y="485" font-size="15">LOCAL DATA</text><text x="90" y="510" font-size="24">SAVES</text><text x="900" y="485" font-size="15">DIAGNOSTICS</text><text x="900" y="510" font-size="24">EVIDENCE</text><text x="545" y="315" font-size="16">VOIDONE</text></g><path d="M430 160L520 245M770 160L680 245M430 460L520 375M770 460L680 375" stroke="#39e6ff" stroke-width="2" stroke-dasharray="6 8" filter="url(#glow)"/></svg>