<svg xmlns="http://www.w3.org/2000/svg" viewBox="0 0 1200 620" role="img" aria-labelledby="t d"><title id="t">VoidOne test bench</title><desc id="d">A testing pipeline from reproduction to regression coverage.</desc><rect width="1200" height="620" rx="18" fill="#070b10" stroke="#39e6ff" stroke-opacity=".3"/><g stroke="#39e6ff" fill="none"><path d="M105 310H1095" stroke-opacity=".25"/><path d="M150 310L310 310L470 220L630 400L790 220L950 310L1050 310" stroke-width="3"/><circle cx="150" cy="310" r="16"/><circle cx="310" cy="310" r="16"/><circle cx="470" cy="220" r="16"/><circle cx="630" cy="400" r="16"/><circle cx="790" cy="220" r="16"/><circle cx="950" cy="310" r="16"/><circle cx="1050" cy="310" r="16"/></g><g fill="#d9fbff" font-family="monospace"><text x="70" y="70" font-size="18">TEST LAB / EVIDENCE PIPELINE</text><text x="120" y="360" font-size="14">REPRODUCE</text><text x="270" y="360" font-size="14">ENVIRONMENT</text><text x="415" y="175" font-size="14">EVIDENCE</text><text x="575" y="450" font-size="14">ISOLATE</text><text x="735" y="175" font-size="14">FIX</text><text x="890" y="360" font-size="14">REGRESSION</text><text x="1010" y="360" font-size="14">RE-RUN</text><text x="70" y="555" font-size="12" opacity=".65">NO CLAIMS WITHOUT A REPRODUCTION PATH.</text></g><g fill="#39e6ff"><circle cx="150" cy="310" r="5"/><circle cx="310" cy="310" r="5"/><circle cx="470" cy="220" r="5"/><circle cx="630" cy="400" r="5"/><circle cx="790" cy="220" r="5"/><circle cx="950" cy="310" r="5"/><circle cx="1050" cy="310" r="5"/></g></svg>