<svg xmlns="http://www.w3.org/2000/svg" viewBox="0 0 1200 620" role="img" aria-labelledby="t d"><title id="t">VoidOne intelligence core</title><desc id="d">A bounded intelligence diagram for diagnosis, performance and localization.</desc><defs><filter id="g"><feGaussianBlur stdDeviation="4" result="b"/><feMerge><feMergeNode in="b"/><feMergeNode in="SourceGraphic"/></feMerge></filter></defs><rect width="1200" height="620" rx="18" fill="#070b10" stroke="#39e6ff" stroke-opacity=".3"/><g fill="none" stroke="#39e6ff" stroke-opacity=".45"><path d="M600 310L250 150M600 310L250 310M600 310L250 470M600 310L950 150M600 310L950 310M600 310L950 470"/><circle cx="600" cy="310" r="120" stroke-opacity=".2"/><circle cx="600" cy="310" r="72"/></g><g fill="#071218" stroke="#39e6ff"><rect x="90" y="105" width="300" height="90" rx="10"/><rect x="90" y="265" width="300" height="90" rx="10"/><rect x="90" y="425" width="300" height="90" rx="10"/><rect x="810" y="105" width="300" height="90" rx="10"/><rect x="810" y="265" width="300" height="90" rx="10"/><rect x="810" y="425" width="300" height="90" rx="10"/><circle cx="600" cy="310" r="54" fill="#39e6ff" fill-opacity=".08"/></g><g fill="#d9fbff" font-family="monospace"><text x="70" y="70" font-size="18">INTELLIGENCE / BOUNDED CORE</text><text x="115" y="140" font-size="14">INPUT</text><text x="115" y="169" font-size="22">LOG EVIDENCE</text><text x="115" y="300" font-size="14">INPUT</text><text x="115" y="329" font-size="22">SYSTEM STATE</text><text x="115" y="460" font-size="14">INPUT</text><text x="115" y="489" font-size="22">PLAYER CONTEXT</text><text x="835" y="140" font-size="14">TASK</text><text x="835" y="169" font-size="22">DIAGNOSIS</text><text x="835" y="300" font-size="14">TASK</text><text x="835" y="329" font-size="22">EXPLANATION</text><text x="835" y="460" font-size="14">TASK</text><text x="835" y="489" font-size="22">TRANSLATION</text><text x="568" y="316" font-size="17">AI</text></g><circle cx="600" cy="310" r="68" fill="none" stroke="#39e6ff" stroke-width="2" filter="url(#g)"/></svg>